{"glyphs":{"\u0000":{"ha":347,"x_min":0,"x_max":0,"o":""},"\r":{"ha":347,"x_min":0,"x_max":0,"o":""}," ":{"ha":347,"x_min":0,"x_max":0,"o":""},"!":{"ha":239,"x_min":69,"x_max":165,"o":"m 121 261 q 153 272 139 272 q 165 264 165 272 q 164 239 164 260 q 144 201 164 201 q 124 207 140 201 q 99 233 99 217 q 121 261 99 249 m 69 721 q 81 728 74 728 q 108 708 96 728 q 126 585 117 694 q 135 408 135 475 q 132 372 135 375 q 124 368 128 368 q 101 393 113 368 q 86 451 89 418 q 69 714 69 668 l 69 721 z "},"\"":{"ha":218,"x_min":69,"x_max":150,"o":"m 71 749 q 76 776 69 776 q 88 769 81 776 q 96 722 96 758 q 93 708 96 711 q 89 707 92 707 q 71 749 76 707 m 122 757 q 126 782 122 778 q 133 786 131 786 q 149 736 146 786 q 142 703 150 704 l 140 703 q 122 757 122 703 z "},"'":{"ha":171,"x_min":68,"x_max":103,"o":"m 74 789 q 83 796 78 796 q 100 749 96 796 q 94 715 103 719 q 89 714 93 714 q 71 754 78 714 q 74 789 68 782 z "},",":{"ha":172,"x_min":69,"x_max":103,"o":"m 86 238 q 103 224 101 247 q 94 159 103 194 q 78 124 85 124 q 69 154 69 124 q 86 238 69 208 z "},".":{"ha":178,"x_min":64,"x_max":108,"o":"m 69 256 q 74 282 65 281 q 85 275 78 282 q 103 264 99 264 q 108 258 108 264 q 89 239 108 239 q 69 256 72 239 z "},":":{"ha":196,"x_min":69,"x_max":126,"o":"m 96 342 q 113 353 103 353 q 126 338 126 353 q 111 301 126 301 q 99 310 104 301 q 93 331 93 319 q 96 342 93 336 m 74 438 q 94 442 81 443 q 110 433 107 440 q 85 408 117 419 q 72 406 75 404 q 69 418 69 408 q 74 438 69 436 z "},";":{"ha":197,"x_min":69,"x_max":126,"o":"m 97 201 q 121 218 111 218 q 126 211 126 218 q 115 186 126 204 q 105 169 113 181 q 94 154 97 157 q 74 142 85 138 q 69 151 69 144 q 97 201 69 167 m 88 349 q 99 358 88 358 q 117 353 108 358 q 126 339 126 347 q 125 333 126 335 q 108 324 119 324 q 88 349 88 324 z "},"?":{"ha":386,"x_min":75,"x_max":311,"o":"m 206 225 q 215 237 208 233 q 228 238 222 240 q 233 226 233 235 q 224 207 233 214 q 208 206 214 199 q 206 225 201 213 m 190 743 q 242 747 219 747 q 307 718 290 747 q 311 692 311 710 q 263 506 311 621 q 240 407 244 465 q 226 349 238 349 q 215 357 218 349 q 206 406 213 365 l 206 413 q 246 547 206 472 q 276 672 274 597 q 267 711 278 703 q 232 718 257 718 q 124 696 179 718 q 83 685 93 685 q 75 689 75 685 q 97 710 75 696 q 190 743 140 736 z "},"A":{"ha":481,"x_min":75,"x_max":407,"o":"m 260 590 q 255 582 258 590 q 248 564 251 574 q 243 553 244 554 q 224 502 238 543 q 203 449 210 461 l 190 424 q 211 419 203 419 q 260 432 226 419 q 298 446 290 442 q 306 457 306 450 q 285 528 306 467 q 260 590 265 590 m 265 658 q 282 642 272 671 q 285 632 283 638 q 288 619 286 625 q 289 609 289 613 q 288 606 289 606 q 296 578 296 586 q 312 525 296 563 q 329 482 328 488 q 343 454 339 454 q 344 442 347 454 q 354 403 342 426 q 385 328 367 379 q 406 256 403 276 q 407 242 407 246 q 404 238 407 239 q 397 239 401 238 q 372 285 385 240 q 338 376 354 339 q 311 418 321 415 q 306 419 308 419 q 261 407 294 419 q 213 393 219 393 q 179 385 188 393 q 153 342 171 378 q 125 271 129 292 q 89 210 110 210 q 75 229 75 210 q 83 254 75 246 q 122 322 94 267 q 150 388 150 376 q 161 408 150 397 q 184 451 168 414 q 200 499 200 488 q 206 506 200 506 q 221 535 211 506 q 243 589 225 544 q 258 633 257 624 q 265 658 264 656 z "},"B":{"ha":500,"x_min":78,"x_max":424,"o":"m 261 640 q 329 651 321 651 q 350 638 342 651 q 353 633 351 635 q 365 586 365 614 q 354 528 365 561 q 343 489 343 497 q 365 471 343 476 q 408 445 393 465 q 424 399 424 425 q 411 350 424 375 q 356 277 396 321 q 286 214 315 233 q 214 190 250 190 q 181 208 185 190 q 184 219 179 217 q 204 222 189 222 q 289 261 242 222 q 371 358 336 300 q 382 389 382 378 q 378 407 382 397 q 339 432 369 431 q 332 433 336 432 q 326 433 328 433 q 274 408 304 433 q 242 376 249 389 q 229 322 235 363 q 204 263 218 263 q 190 289 193 263 q 185 458 188 315 l 185 485 q 188 514 185 508 q 200 519 190 519 q 219 488 215 519 q 228 457 225 457 l 231 457 q 293 501 260 457 q 326 578 326 544 q 313 601 326 597 q 300 603 310 603 q 231 592 275 603 q 165 571 186 582 q 125 556 138 556 q 108 539 114 556 q 94 524 104 524 q 78 547 78 524 q 94 571 78 569 q 119 590 113 574 q 153 615 125 604 q 261 640 182 625 z "},"C":{"ha":521,"x_min":74,"x_max":444,"o":"m 303 590 q 315 618 303 606 q 342 631 326 631 q 368 615 358 631 q 371 606 371 607 q 344 572 371 597 q 276 496 313 546 q 192 393 239 446 q 115 265 115 304 q 117 258 115 260 q 199 247 121 247 l 275 247 l 335 288 q 406 340 394 329 q 426 349 414 349 q 444 335 444 349 q 396 285 444 324 q 307 226 347 247 q 188 206 267 207 l 169 206 q 92 215 110 206 q 74 257 74 225 q 86 314 74 289 q 257 526 110 361 q 303 590 303 578 z "},"D":{"ha":564,"x_min":78,"x_max":486,"o":"m 164 456 q 183 467 172 469 q 196 372 194 464 q 194 294 196 307 q 181 281 192 281 q 168 292 171 281 q 163 361 165 303 q 161 417 161 381 q 164 456 161 451 m 235 572 q 413 600 361 600 q 469 585 450 600 q 486 556 486 572 q 485 533 486 543 q 419 409 478 476 q 233 243 361 342 q 108 158 125 158 q 99 161 104 158 q 92 165 93 164 q 91 170 90 167 q 97 178 92 174 q 111 190 101 182 q 240 292 117 196 q 379 410 343 372 q 430 482 410 443 q 450 544 450 521 l 450 564 l 396 564 q 321 558 338 564 q 258 543 296 550 q 151 519 233 539 q 93 511 110 511 q 78 517 78 511 q 89 532 78 521 q 235 572 103 546 z "},"E":{"ha":469,"x_min":71,"x_max":394,"o":"m 110 596 q 128 601 117 596 q 149 607 140 607 q 175 617 160 610 q 257 640 189 624 q 347 667 325 656 q 358 672 350 668 q 369 676 367 675 q 385 669 386 682 q 372 654 383 660 q 287 619 342 639 q 218 600 232 600 q 185 587 211 600 q 158 574 160 574 q 143 538 143 568 q 136 514 143 521 q 126 464 126 504 q 133 429 126 432 l 138 429 q 206 444 171 429 q 236 450 210 447 q 285 458 267 453 q 317 458 317 467 l 315 454 q 292 440 313 447 q 246 426 272 433 q 211 417 219 419 q 193 411 197 411 q 179 399 186 411 q 156 384 174 390 q 135 375 139 378 q 121 342 122 367 q 118 281 118 319 q 129 225 118 225 q 135 226 131 225 q 147 231 139 228 q 160 235 154 233 q 197 244 182 242 q 267 274 214 246 q 343 304 319 303 q 360 307 347 306 q 376 308 372 308 q 393 306 392 311 q 383 288 394 301 q 368 281 374 276 q 363 282 367 282 q 341 276 356 282 q 324 269 326 269 q 307 264 317 269 q 251 241 293 257 q 203 225 208 225 q 163 212 197 225 q 118 193 128 199 q 106 189 111 189 q 89 217 89 189 q 90 224 89 219 q 90 229 90 228 q 92 265 92 238 q 94 316 92 292 q 101 357 96 340 q 93 371 103 367 q 93 389 75 376 q 104 414 101 396 q 108 507 107 432 l 111 568 l 99 565 q 81 569 90 564 q 71 581 71 574 q 86 590 71 583 q 110 596 101 596 z "},"F":{"ha":447,"x_min":67,"x_max":368,"o":"m 272 635 q 349 651 331 651 q 367 639 364 651 q 365 630 368 632 q 353 628 363 628 q 304 615 335 628 q 201 583 258 597 q 118 554 128 563 q 110 521 110 546 q 115 457 110 492 q 121 441 118 444 q 136 438 124 438 l 153 438 q 188 429 186 439 q 183 419 189 424 q 160 410 176 415 q 124 393 128 399 q 108 286 113 379 q 96 201 103 201 q 94 202 94 201 q 93 203 94 203 q 86 286 86 207 q 76 382 86 367 q 74 410 67 396 q 79 464 79 419 q 71 556 79 528 l 69 557 q 69 560 69 558 q 103 590 69 575 q 163 608 136 604 q 272 635 188 613 z "},"G":{"ha":467,"x_min":71,"x_max":392,"o":"m 269 604 q 299 607 283 607 l 300 607 q 342 589 324 607 q 360 549 360 571 q 359 544 360 547 q 358 539 358 540 q 347 525 354 524 q 343 538 340 525 q 343 550 346 546 q 326 561 340 554 q 292 569 308 569 q 256 565 278 569 q 238 561 250 564 q 222 558 225 558 q 173 518 211 557 q 129 464 135 479 q 108 406 126 453 q 94 346 94 367 l 94 322 q 107 260 96 279 q 119 240 117 240 q 136 228 124 240 q 201 200 165 200 q 264 218 228 200 q 301 233 281 226 q 332 261 310 235 q 364 306 354 288 q 371 328 371 318 q 361 335 371 335 q 343 332 360 335 q 317 329 326 329 q 286 339 286 329 q 311 355 286 347 q 361 363 336 363 q 386 357 381 363 q 392 339 392 353 q 368 275 392 303 q 357 263 367 274 q 338 241 347 251 q 317 222 328 231 q 303 213 307 213 q 276 203 293 213 q 193 178 233 178 l 185 178 q 167 181 172 179 q 155 189 161 183 q 139 199 149 194 q 88 244 108 213 q 71 317 74 265 l 71 340 q 74 378 71 369 q 93 428 85 404 q 176 551 111 496 q 269 604 229 597 z "},"H":{"ha":408,"x_min":69,"x_max":339,"o":"m 297 539 q 300 567 297 539 q 313 608 303 596 q 328 621 322 621 q 339 522 339 621 q 338 472 339 510 q 338 408 338 435 q 324 182 333 194 q 310 174 315 174 q 292 308 292 174 q 286 431 289 428 l 285 431 q 282 432 283 432 q 210 415 264 432 q 142 386 157 397 q 108 240 110 361 q 104 181 108 181 q 97 185 101 181 q 85 268 85 197 q 75 365 85 339 q 69 388 69 378 q 79 406 69 396 q 93 460 93 419 q 92 476 93 464 q 92 497 92 489 l 92 531 q 100 578 92 575 l 103 578 l 106 579 q 133 501 133 579 q 142 446 133 450 q 149 444 143 444 q 222 457 169 444 q 283 476 275 469 q 297 539 292 482 z "},"I":{"ha":776,"x_min":76,"x_max":697,"o":"m 506 326 q 551 333 538 333 q 571 326 571 333 q 517 294 571 314 q 393 267 467 276 q 225 225 317 256 q 122 178 133 194 q 101 171 119 171 q 76 182 76 171 q 99 213 76 194 q 144 239 121 232 q 244 269 157 243 q 399 306 326 292 q 506 326 499 325 m 392 493 q 403 504 397 504 q 415 446 415 504 q 413 394 415 433 q 407 347 410 356 q 394 338 404 338 q 381 345 385 338 q 375 381 378 353 q 374 404 374 389 q 392 493 374 457 m 588 601 q 628 606 606 606 q 682 594 667 606 q 697 578 697 583 q 679 572 697 572 q 654 574 664 572 q 626 575 646 575 q 561 568 600 575 q 189 503 367 526 q 181 502 186 503 q 174 501 175 501 q 154 508 154 501 q 168 518 154 513 q 189 531 176 522 q 260 547 196 539 q 588 601 467 576 z "},"J":{"ha":393,"x_min":75,"x_max":322,"o":"m 242 640 q 257 650 250 650 q 272 610 269 650 q 293 524 275 572 q 322 376 322 451 l 322 351 q 312 264 321 289 q 275 218 303 239 q 206 193 242 193 q 161 197 186 193 q 97 208 100 208 q 75 224 75 210 q 90 242 75 242 q 122 235 99 242 q 185 225 153 225 q 246 239 224 225 q 275 267 269 253 q 285 340 281 282 q 285 354 285 344 q 286 369 286 364 q 261 507 286 476 q 245 553 253 518 q 238 615 238 588 q 242 640 238 633 z "},"K":{"ha":383,"x_min":68,"x_max":311,"o":"m 74 590 q 90 611 81 611 q 114 519 114 611 q 124 464 114 464 q 165 525 133 464 q 207 597 199 589 q 229 610 217 610 q 240 599 240 610 q 211 528 240 586 q 160 438 182 469 q 140 400 140 411 q 176 388 140 393 q 288 300 251 378 q 311 207 311 250 q 299 178 311 178 l 297 178 q 272 215 283 181 q 226 318 250 288 q 167 349 203 349 l 158 349 l 125 346 l 121 276 q 103 196 118 207 q 81 185 89 185 q 69 194 71 185 q 75 213 68 203 q 82 244 82 222 q 79 282 82 251 q 69 510 69 392 q 74 590 69 581 z "},"L":{"ha":425,"x_min":69,"x_max":351,"o":"m 92 640 q 108 638 96 647 q 118 624 122 628 q 115 604 110 615 q 118 603 115 601 q 125 599 122 606 q 118 583 128 593 q 111 568 108 572 q 115 525 115 560 q 111 486 115 490 q 118 471 107 485 q 121 447 128 460 q 110 421 110 429 q 118 403 110 411 q 125 389 125 394 q 122 376 125 383 q 118 363 118 369 q 114 353 118 353 q 104 340 108 353 q 101 314 100 326 q 106 258 106 285 q 110 214 108 217 q 124 208 113 208 q 211 235 147 208 q 329 271 294 271 q 333 270 331 271 q 336 269 335 269 q 351 263 351 267 q 324 250 351 257 q 277 233 310 247 q 236 217 244 219 q 188 200 229 217 q 132 182 149 185 q 126 181 129 182 q 121 181 122 181 q 75 200 88 181 q 69 256 69 210 q 76 335 69 310 q 82 408 82 357 q 92 640 82 621 z "},"M":{"ha":728,"x_min":75,"x_max":656,"o":"m 471 589 q 519 628 501 628 q 550 606 536 628 q 569 550 564 585 q 595 448 575 526 q 619 349 615 369 q 642 260 629 304 q 656 199 656 201 q 644 189 656 189 q 610 211 619 189 q 540 489 582 276 q 513 572 525 572 q 433 469 501 572 q 347 350 369 372 q 328 338 335 338 q 310 349 324 338 q 286 413 293 364 q 271 468 281 463 q 267 469 269 468 q 153 326 239 469 q 88 239 100 239 q 79 243 83 239 q 75 251 75 247 q 97 306 75 263 q 108 343 108 325 q 126 376 108 358 q 192 454 154 404 q 285 536 254 536 q 313 503 304 536 q 334 426 328 443 q 350 408 340 408 q 364 431 364 408 q 379 464 364 451 q 417 514 390 474 q 471 589 429 533 z "},"N":{"ha":621,"x_min":74,"x_max":546,"o":"m 482 613 q 499 620 488 621 q 518 610 511 619 q 538 549 529 596 q 546 458 546 503 q 544 429 546 438 q 513 318 539 375 q 453 226 488 261 q 378 188 413 188 q 353 192 365 188 q 301 255 331 199 q 264 363 272 311 q 244 440 258 401 q 221 478 229 478 q 194 436 214 478 q 130 317 167 376 q 85 257 93 257 q 74 271 74 257 q 88 315 74 286 q 114 363 104 356 q 161 450 117 365 q 229 543 207 543 q 254 522 242 543 q 286 435 269 499 q 386 231 339 231 q 441 275 404 231 q 493 360 478 319 q 511 454 511 406 q 494 550 511 497 q 481 608 481 592 l 481 610 q 482 613 482 611 z "},"O":{"ha":513,"x_min":74,"x_max":438,"o":"m 361 494 q 288 503 294 503 q 240 488 263 503 q 164 424 217 472 q 126 381 133 394 q 119 339 119 368 q 144 269 119 294 q 250 229 185 229 q 331 257 299 229 q 375 323 349 274 q 401 392 401 372 q 386 443 401 404 q 361 494 371 482 m 290 599 l 307 599 q 356 569 356 599 q 372 542 356 556 q 418 478 399 519 q 438 403 438 438 q 412 310 438 364 q 354 228 386 256 q 235 190 307 190 q 192 196 208 190 q 113 246 153 207 q 74 313 74 285 q 133 464 76 399 q 173 510 144 478 q 211 554 201 543 q 249 589 236 582 q 290 599 261 596 z "},"P":{"ha":533,"x_min":78,"x_max":454,"o":"m 325 604 q 401 618 378 618 q 442 603 429 618 q 454 567 454 586 q 363 419 454 519 q 272 338 288 338 l 271 338 q 267 344 267 339 q 322 421 267 364 q 399 507 375 476 q 424 558 424 540 q 419 585 424 579 q 400 593 415 592 l 397 593 q 265 556 357 593 l 232 542 l 236 517 q 249 363 249 426 q 246 333 249 342 q 236 253 242 319 q 231 197 233 206 q 218 188 228 188 q 210 188 213 188 q 207 192 208 189 q 206 200 206 194 q 207 225 206 214 q 208 250 208 236 q 196 274 208 265 q 184 285 185 282 q 192 294 183 288 q 215 389 215 311 q 206 467 215 422 q 200 508 194 503 q 196 521 208 521 q 176 513 188 519 q 131 478 142 488 q 119 458 119 468 q 121 450 119 453 q 122 436 122 439 q 114 435 121 433 q 90 453 103 435 l 78 469 l 99 488 q 201 553 135 518 q 325 604 268 588 z "},"Q":{"ha":607,"x_min":72,"x_max":531,"o":"m 375 497 q 356 525 371 525 q 303 506 342 525 q 197 423 267 488 q 118 332 128 358 q 113 304 113 319 q 153 244 113 265 q 236 229 186 229 q 325 246 292 229 q 358 281 358 261 l 358 289 l 358 297 q 375 324 358 324 q 393 315 383 324 q 432 311 411 301 q 470 354 453 321 q 488 417 488 388 q 482 442 488 435 q 426 460 474 453 q 385 471 392 465 q 375 497 378 476 m 351 565 q 400 578 394 578 q 467 522 418 578 q 525 439 517 467 q 531 408 531 411 q 517 364 531 393 q 465 293 497 328 q 438 249 438 264 q 440 235 438 246 q 443 218 443 221 q 431 203 443 203 q 401 213 421 203 q 369 222 382 222 q 343 215 361 222 q 229 192 288 192 q 101 238 147 192 q 77 269 82 257 q 72 307 72 281 q 83 354 72 338 q 150 429 93 371 q 252 518 208 489 q 351 565 296 547 z "},"R":{"ha":504,"x_min":78,"x_max":426,"o":"m 338 604 q 381 611 372 611 q 411 593 393 611 q 426 565 426 578 q 425 554 426 558 q 322 388 406 481 q 268 317 268 325 q 296 276 268 310 q 322 219 322 246 q 314 193 322 193 q 290 219 306 193 q 228 261 265 261 q 203 252 211 261 q 192 215 196 243 q 176 189 188 189 q 168 206 169 189 q 164 297 167 224 l 164 343 q 169 418 164 399 q 189 438 174 438 q 200 381 200 438 q 207 318 200 322 l 208 318 q 240 346 219 318 q 300 417 271 385 q 363 498 335 456 q 390 556 390 540 q 369 578 390 578 q 335 571 360 578 q 210 514 303 561 q 107 456 117 467 q 88 444 97 443 q 78 460 78 446 q 101 485 78 472 q 126 501 124 499 q 224 557 138 515 q 338 604 310 599 z "},"S":{"ha":438,"x_min":75,"x_max":364,"o":"m 232 565 q 328 617 304 617 q 346 608 346 617 q 318 581 346 597 q 149 460 149 474 q 194 449 149 453 q 270 434 246 443 q 317 403 294 425 q 364 315 364 356 q 361 294 364 308 q 338 243 354 263 q 289 206 322 224 q 243 188 263 192 q 163 182 224 185 q 111 181 140 181 q 75 190 75 181 q 92 206 75 201 q 164 211 110 210 q 261 233 224 215 q 313 268 301 256 q 325 306 325 283 q 279 392 325 360 q 224 411 263 403 q 153 419 185 419 q 144 419 150 419 q 138 418 139 418 l 125 418 q 85 440 85 418 q 88 450 85 442 q 232 565 106 481 z "},"T":{"ha":829,"x_min":75,"x_max":751,"o":"m 393 418 q 419 440 407 440 q 426 433 426 440 q 425 425 426 428 q 382 251 404 346 q 372 215 376 222 q 354 206 367 208 l 349 206 q 335 217 335 206 q 344 244 335 226 q 356 297 356 267 q 393 418 356 357 m 499 563 q 591 572 551 567 q 651 578 631 576 q 708 581 672 581 q 744 577 736 579 q 751 567 751 575 q 721 526 751 553 q 675 500 690 500 l 672 500 q 665 508 664 504 q 682 526 667 513 q 699 551 706 547 q 688 553 697 553 q 650 549 671 553 q 540 538 624 543 q 326 510 456 531 q 150 474 196 489 q 93 460 104 460 q 78 471 81 460 q 85 483 75 483 q 122 497 89 483 q 499 563 193 532 z "},"U":{"ha":507,"x_min":69,"x_max":432,"o":"m 76 522 q 90 547 82 522 q 104 571 97 571 q 114 510 114 571 q 113 483 114 503 q 113 450 113 463 q 112 424 113 440 q 111 400 111 407 q 128 261 111 301 q 188 221 144 221 q 242 231 213 221 q 335 311 286 244 q 396 444 383 378 q 400 478 400 465 q 386 532 400 499 q 371 585 371 575 q 383 594 371 594 q 424 571 411 594 q 432 514 432 554 q 408 375 432 432 q 304 234 368 288 q 174 181 240 181 q 121 208 147 181 q 83 274 94 235 q 69 453 69 322 q 76 522 69 522 z "},"V":{"ha":475,"x_min":78,"x_max":400,"o":"m 351 624 q 364 629 357 629 q 390 606 382 629 q 400 507 400 583 q 371 361 400 435 q 330 271 346 299 q 283 211 314 243 q 232 182 256 182 q 201 197 213 182 q 167 255 186 215 q 147 310 147 294 q 133 380 147 325 q 110 456 118 435 q 78 551 78 531 q 83 565 78 564 q 101 574 97 574 q 168 424 124 574 q 210 288 199 317 q 236 246 221 258 q 251 238 247 236 q 263 250 256 239 q 277 271 265 256 q 293 292 289 286 q 333 379 313 314 q 351 482 351 432 q 350 531 351 511 q 349 589 349 553 q 351 624 349 622 z "},"W":{"ha":547,"x_min":78,"x_max":472,"o":"m 399 628 q 422 640 414 640 q 457 554 436 640 q 472 439 472 490 q 465 372 472 404 q 410 254 451 315 q 343 193 368 193 q 258 332 294 193 q 244 361 253 361 q 232 329 239 361 q 221 292 226 296 q 214 275 214 288 q 194 240 214 264 q 165 215 175 215 q 146 251 158 215 q 128 325 133 288 q 94 411 122 378 q 78 449 78 432 q 88 472 78 461 q 110 488 100 488 q 136 440 128 488 q 176 304 165 304 q 193 335 181 304 q 211 389 206 367 q 247 444 225 444 q 301 310 267 444 q 331 242 317 256 l 347 226 l 379 263 q 408 304 400 286 q 428 364 417 322 q 439 433 439 417 q 435 471 439 450 q 393 604 414 590 q 385 614 385 610 q 399 628 386 618 z "},"X":{"ha":546,"x_min":78,"x_max":467,"o":"m 429 585 q 447 597 433 597 q 467 581 467 597 q 454 564 467 564 q 422 542 442 564 q 368 479 418 536 q 332 422 332 440 q 348 373 332 407 q 374 333 364 339 q 382 324 381 329 q 379 316 383 319 q 367 313 375 313 q 322 346 350 313 q 283 375 299 375 l 279 375 q 222 310 264 369 q 89 163 117 163 q 78 169 78 163 q 142 267 78 179 q 246 399 207 356 q 269 436 269 426 q 265 454 269 444 q 243 489 256 479 q 232 521 232 496 q 239 542 232 539 l 240 542 q 274 514 253 542 q 311 481 299 481 q 361 526 322 481 q 414 572 401 572 q 429 585 424 572 z "},"Y":{"ha":374,"x_min":75,"x_max":294,"o":"m 263 586 q 260 613 260 611 q 267 624 260 624 l 269 622 q 275 622 274 622 q 289 615 286 621 q 294 585 292 608 l 294 575 q 217 429 294 507 l 172 386 l 172 297 q 160 201 172 201 q 149 213 156 201 q 139 290 139 226 l 139 321 q 135 376 139 361 q 118 404 131 390 q 89 465 103 419 q 76 539 75 510 l 76 568 l 93 550 q 110 509 101 540 q 129 454 119 478 q 153 431 139 431 q 199 456 169 431 q 246 510 229 481 q 264 564 264 542 q 263 586 264 578 z "},"Z":{"ha":557,"x_min":75,"x_max":479,"o":"m 192 603 q 214 606 197 606 q 226 605 218 606 q 239 604 235 604 q 471 581 444 588 q 479 556 479 578 q 428 478 479 532 q 349 406 378 425 q 246 315 318 385 q 174 236 174 246 q 214 229 174 229 q 289 232 222 229 q 364 235 356 235 q 418 222 403 235 q 433 204 433 210 q 361 199 433 201 q 202 192 289 197 q 88 175 115 186 q 78 176 81 172 q 75 190 75 179 q 104 229 75 208 q 206 325 122 244 q 315 425 289 406 q 397 494 356 454 q 438 546 438 535 q 393 560 438 560 q 353 554 369 560 q 319 549 335 549 q 299 553 308 549 q 268 553 279 563 q 246 560 258 544 q 208 576 233 576 q 181 590 181 576 q 192 603 181 596 z "},"a":{"ha":340,"x_min":74,"x_max":268,"o":"m 208 290 q 187 300 199 299 q 169 294 175 301 l 164 293 q 163 294 164 294 q 119 265 154 294 l 99 247 l 111 235 q 142 222 124 222 q 175 229 154 222 q 207 239 194 236 q 219 261 219 242 q 208 290 219 281 m 175 329 q 193 336 185 336 q 226 322 207 336 l 249 307 l 249 271 q 257 224 249 236 q 268 197 268 208 q 264 192 268 192 q 240 206 256 192 q 207 214 224 219 q 185 204 200 213 q 133 196 171 196 q 126 197 131 196 q 121 197 122 197 q 90 217 107 200 q 74 244 74 233 q 91 280 74 254 q 115 306 108 306 q 132 315 119 306 q 156 322 143 325 q 175 329 168 322 z "},"b":{"ha":289,"x_min":71,"x_max":217,"o":"m 176 254 q 131 264 158 264 l 99 264 l 99 244 q 114 210 99 225 q 142 194 129 194 q 175 214 156 194 q 193 239 193 232 q 176 254 193 243 m 107 472 q 119 469 110 475 q 126 444 128 464 q 108 322 117 361 q 114 292 101 285 q 117 294 115 293 q 149 300 125 300 q 188 293 176 300 q 207 269 197 288 q 217 239 217 250 q 206 210 217 228 q 179 183 194 193 q 140 171 161 171 q 92 190 113 171 q 71 239 71 210 l 71 247 q 76 288 72 257 q 83 347 79 319 q 89 389 86 374 q 107 472 103 467 z "},"c":{"ha":318,"x_min":75,"x_max":244,"o":"m 143 315 q 193 354 182 354 l 196 354 q 208 350 206 353 q 210 333 210 347 q 208 317 210 319 q 194 313 206 314 q 168 307 179 313 q 130 267 156 301 q 104 224 104 233 q 112 206 104 214 q 128 200 119 197 q 210 224 190 219 q 231 226 218 226 q 244 221 244 226 q 242 215 244 217 q 194 196 236 210 q 129 179 151 182 q 92 190 111 176 q 75 218 75 203 q 143 315 75 247 z "},"d":{"ha":286,"x_min":75,"x_max":213,"o":"m 174 292 q 153 290 163 292 q 116 272 131 289 q 101 229 101 254 q 122 204 101 204 q 140 208 131 204 q 171 238 154 215 q 188 275 188 261 q 174 292 188 292 m 129 519 q 151 517 142 528 q 168 487 157 510 q 179 460 179 464 q 190 431 179 453 q 213 321 213 385 q 204 249 213 282 q 156 190 190 211 q 128 183 144 183 q 90 198 106 183 q 75 233 75 213 q 78 250 75 244 q 144 317 92 289 q 178 335 174 331 q 183 351 183 339 q 138 465 183 406 q 122 504 122 485 q 129 519 122 515 z "},"e":{"ha":318,"x_min":75,"x_max":250,"o":"m 165 319 q 199 326 193 326 q 217 317 207 326 q 225 300 225 308 q 201 269 225 286 q 165 257 183 257 q 156 263 156 257 q 159 272 156 269 q 186 285 163 275 q 200 301 211 294 q 189 304 197 304 q 139 288 169 304 q 101 257 108 272 q 104 236 96 249 q 165 208 125 208 q 208 215 183 208 q 242 215 235 224 q 233 201 250 207 q 167 188 201 188 q 79 229 101 188 q 75 244 75 238 q 89 272 75 257 q 165 319 118 306 z "},"f":{"ha":299,"x_min":76,"x_max":222,"o":"m 135 515 q 161 524 149 524 q 190 512 172 524 q 215 488 207 500 q 222 461 222 476 q 217 440 222 447 q 212 435 213 435 q 208 446 211 436 q 190 477 206 456 q 164 504 174 499 q 144 500 158 507 l 132 493 l 133 465 q 149 374 142 386 q 171 365 151 371 q 192 356 190 360 q 189 349 193 350 q 169 349 185 347 l 157 349 l 161 317 q 163 275 163 300 q 172 238 163 272 q 182 194 182 203 q 169 186 182 182 q 157 200 160 192 q 136 303 146 239 q 119 350 129 347 l 115 350 q 99 346 110 350 q 85 342 89 342 q 76 353 76 342 q 104 372 76 365 q 121 389 121 376 q 120 399 121 393 q 118 414 119 404 q 115 433 117 424 q 114 464 114 444 q 135 515 114 501 z "},"g":{"ha":415,"x_min":81,"x_max":340,"o":"m 261 281 q 253 286 257 286 q 232 261 244 286 l 219 238 q 251 224 240 224 q 268 228 260 224 q 269 236 269 228 q 261 281 269 269 m 249 310 q 276 290 276 311 q 285 272 276 278 q 297 243 293 267 q 314 185 300 231 q 340 38 340 101 q 331 -15 340 0 q 301 -41 324 -26 q 263 -60 279 -56 q 240 -61 257 -61 q 210 -60 221 -61 q 129 -40 178 -56 q 81 -18 81 -25 q 90 -14 81 -14 q 158 -27 107 -14 q 211 -40 210 -40 l 221 -40 q 283 -24 254 -40 q 318 19 311 -7 q 319 39 319 25 q 301 140 319 76 q 281 196 288 188 q 251 204 275 204 l 247 204 q 197 232 197 204 q 214 274 197 249 q 231 301 229 299 q 249 310 232 307 z "},"h":{"ha":344,"x_min":75,"x_max":272,"o":"m 82 479 q 75 519 75 500 q 82 536 75 536 q 96 528 88 536 q 106 506 106 521 q 111 474 106 494 q 118 446 117 454 q 128 388 119 433 q 139 332 138 343 q 151 294 143 294 q 172 310 160 294 q 193 324 185 324 q 217 318 194 324 q 229 313 224 317 q 239 304 235 310 q 246 294 243 299 q 251 280 249 289 q 256 266 254 271 q 260 250 257 261 q 264 235 263 239 q 272 189 272 208 q 268 178 272 178 q 247 201 258 178 q 231 247 235 224 q 206 286 225 279 l 203 286 l 200 288 q 161 231 188 288 q 133 188 140 188 q 120 224 125 188 q 112 309 115 260 q 103 378 108 358 q 94 426 100 389 q 82 479 88 464 z "},"i":{"ha":188,"x_min":72,"x_max":117,"o":"m 75 318 q 88 335 81 335 q 98 321 93 335 q 107 286 103 307 q 113 261 111 265 q 117 215 117 249 q 110 161 117 161 q 90 182 93 161 q 72 301 72 276 q 75 318 72 307 z "},"j":{"ha":342,"x_min":79,"x_max":271,"o":"m 224 185 q 217 232 217 215 q 232 264 217 264 l 235 264 q 251 232 246 263 q 271 63 271 93 q 268 24 271 32 q 250 1 265 15 q 189 -24 222 -24 q 131 -14 172 -24 q 79 7 79 0 q 81 14 79 11 q 100 24 86 24 q 122 18 106 24 q 172 7 133 13 q 196 6 182 6 q 225 19 211 6 q 239 56 239 33 q 238 93 239 76 q 224 185 235 144 z "},"k":{"ha":333,"x_min":71,"x_max":258,"o":"m 114 428 q 122 363 114 413 q 129 301 129 314 q 147 308 129 271 q 167 338 157 332 q 176 358 176 343 q 180 376 176 372 q 192 374 183 381 q 189 354 200 368 q 181 338 181 344 q 167 304 181 335 q 156 272 156 281 q 163 268 156 268 q 214 247 190 268 q 224 240 215 247 q 236 229 232 232 q 251 210 249 221 q 254 199 251 207 q 258 186 257 190 q 257 178 258 182 q 242 185 253 172 q 229 204 232 197 q 206 229 226 214 q 153 250 179 250 q 136 247 147 250 q 124 213 125 243 q 114 181 119 182 q 107 193 108 181 q 106 271 106 206 q 100 372 106 358 q 79 450 93 385 q 76 489 71 482 q 89 496 81 496 q 104 473 96 496 q 114 428 113 450 z "},"l":{"ha":181,"x_min":71,"x_max":111,"o":"m 89 526 q 101 537 93 539 q 111 521 110 535 l 111 493 q 111 475 111 492 q 110 431 111 458 q 110 376 110 403 q 106 229 110 263 q 88 188 101 189 l 83 188 q 71 206 71 188 q 74 238 71 210 q 78 343 78 261 l 78 374 l 78 417 q 81 479 78 476 q 86 500 86 482 q 89 526 86 515 z "},"m":{"ha":353,"x_min":68,"x_max":282,"o":"m 174 292 q 208 315 189 292 q 247 339 228 339 q 272 321 263 339 q 282 244 282 303 q 274 182 282 194 q 263 174 267 174 q 251 222 251 174 l 251 243 l 251 260 q 247 306 251 303 l 244 306 q 203 267 232 306 q 175 210 175 228 q 157 197 175 197 l 139 197 l 143 229 q 144 249 144 238 q 139 264 144 264 q 119 246 132 264 q 99 210 107 228 q 83 190 92 190 q 81 215 68 190 q 81 243 88 228 q 76 254 76 250 q 103 283 76 261 q 143 308 132 308 q 157 300 150 308 q 174 292 163 292 z "},"n":{"ha":271,"x_min":75,"x_max":199,"o":"m 115 286 q 134 319 118 296 q 157 342 150 342 q 181 323 167 342 q 197 285 194 304 q 199 258 199 276 q 185 197 199 201 q 176 196 182 196 q 167 221 167 196 q 168 249 167 238 q 171 286 171 285 q 164 300 171 297 q 147 293 156 303 q 138 272 138 283 q 122 237 138 264 q 106 206 107 210 q 88 179 97 179 q 75 219 75 179 q 78 251 75 244 q 92 264 81 257 q 115 286 107 272 z "},"o":{"ha":306,"x_min":74,"x_max":235,"o":"m 92 296 q 129 360 124 360 q 140 351 133 360 q 147 338 147 343 q 129 311 147 329 q 97 251 100 281 q 97 233 94 238 q 108 221 99 229 q 144 210 124 210 q 213 261 196 210 l 219 279 l 199 299 q 168 317 179 317 q 156 325 156 317 q 172 356 156 349 q 178 357 175 357 q 219 319 192 357 q 235 278 235 300 q 203 210 235 244 q 143 183 178 183 q 82 204 104 183 q 74 239 74 211 q 81 274 74 263 l 92 296 z "},"p":{"ha":293,"x_min":75,"x_max":221,"o":"m 175 289 q 151 306 161 306 q 132 247 132 306 q 142 204 132 204 q 168 222 150 204 q 188 258 188 242 q 175 289 188 272 m 124 353 q 144 363 133 363 q 182 343 163 363 q 221 256 221 301 q 150 174 221 218 q 130 154 133 163 q 124 108 126 146 q 108 24 119 61 q 86 -14 96 -14 q 75 17 75 -14 q 83 79 75 39 q 97 213 94 133 q 124 353 103 328 z "},"q":{"ha":408,"x_min":75,"x_max":329,"o":"m 121 286 q 161 317 151 317 q 172 310 165 317 q 178 294 178 303 q 157 274 178 278 q 125 256 142 271 q 107 231 108 240 q 109 209 106 214 q 125 204 113 204 q 151 213 140 204 q 161 232 161 221 q 175 257 161 240 q 197 263 188 272 q 193 231 206 254 q 172 194 175 197 q 138 79 146 160 q 136 56 136 68 q 144 31 136 40 q 229 6 161 6 q 271 7 256 6 q 301 8 283 8 q 329 3 329 8 q 271 -18 329 -6 q 232 -21 260 -21 q 132 -1 156 -21 q 114 28 122 7 q 106 65 106 49 q 107 78 106 75 q 113 111 113 92 q 124 151 113 129 q 132 172 132 167 q 122 179 132 179 q 118 178 121 179 q 113 178 115 178 l 107 178 q 85 185 94 178 q 75 203 75 193 q 121 286 75 242 z "},"r":{"ha":308,"x_min":74,"x_max":233,"o":"m 74 267 q 85 299 74 281 q 96 329 96 317 q 99 353 96 344 q 121 361 100 361 q 169 349 147 361 q 192 332 192 336 q 199 329 192 329 q 219 315 204 329 q 233 293 233 300 q 228 290 233 290 q 147 328 199 290 q 131 338 133 340 q 119 290 119 322 q 114 272 119 275 q 111 253 111 271 l 111 235 q 101 192 111 192 q 94 196 99 192 q 81 226 89 200 q 74 267 74 251 z "},"s":{"ha":258,"x_min":67,"x_max":188,"o":"m 122 382 q 138 392 132 392 q 143 381 143 392 q 131 338 143 350 q 147 311 117 331 q 186 257 181 289 q 181 219 188 233 q 160 196 168 199 q 158 197 160 197 q 153 196 157 197 q 147 193 150 194 q 111 186 133 186 q 79 193 89 186 q 85 200 67 200 q 96 200 90 201 l 100 200 q 158 222 133 200 q 168 244 168 231 q 146 288 168 265 q 114 294 138 296 q 89 300 89 293 q 100 335 89 307 q 111 365 111 363 q 122 382 111 371 z "},"t":{"ha":374,"x_min":76,"x_max":294,"o":"m 132 499 q 160 490 142 508 q 181 401 176 474 q 197 396 181 396 q 224 397 213 396 q 250 399 235 399 q 281 389 269 399 l 294 378 l 269 378 q 218 370 242 378 q 189 353 194 363 q 185 313 185 344 q 186 268 185 285 q 188 224 188 249 q 181 192 188 194 q 175 190 179 190 q 157 274 163 190 l 153 346 l 115 344 q 104 344 111 344 q 94 343 97 343 q 76 354 76 343 q 104 369 76 367 q 140 382 131 372 q 150 411 150 392 q 139 449 150 431 q 128 485 128 467 q 132 499 128 494 z "},"u":{"ha":328,"x_min":72,"x_max":256,"o":"m 226 286 q 224 303 224 292 q 239 340 224 340 q 246 339 243 340 q 256 293 256 335 q 246 235 256 250 q 147 186 215 186 q 88 213 104 186 q 72 290 72 239 q 82 324 72 324 q 97 290 97 324 q 117 219 97 242 q 147 211 122 211 q 225 231 193 211 q 232 260 232 235 q 226 286 232 281 z "},"v":{"ha":285,"x_min":74,"x_max":215,"o":"m 189 344 q 201 352 190 351 q 213 346 211 353 q 210 329 215 340 q 206 293 206 313 q 165 197 206 228 q 140 185 150 185 q 99 236 125 185 q 74 310 74 289 q 78 326 74 318 q 90 333 83 338 q 97 318 97 328 q 111 267 97 301 q 140 214 125 233 q 154 221 142 213 q 176 257 165 229 q 186 310 186 285 q 189 344 186 336 z "},"w":{"ha":342,"x_min":74,"x_max":269,"o":"m 238 369 q 244 374 240 374 q 253 368 249 374 q 260 356 258 363 q 269 286 269 307 q 242 215 269 240 q 208 201 225 201 l 197 201 q 168 228 179 203 q 157 243 161 243 q 144 224 151 243 q 123 195 138 208 q 99 182 108 182 q 75 247 82 182 q 74 274 74 258 q 76 292 74 289 q 90 279 85 300 q 93 267 92 274 q 110 215 101 215 q 126 242 114 215 q 138 281 138 269 q 142 300 138 292 q 154 308 147 308 q 166 295 158 308 q 179 264 174 282 q 193 226 189 233 q 207 219 197 219 q 246 261 229 219 l 256 281 l 242 303 q 231 340 231 322 q 238 369 231 356 z "},"x":{"ha":290,"x_min":75,"x_max":218,"o":"m 157 282 q 165 293 158 283 q 178 311 172 303 q 193 326 185 319 q 206 333 201 333 q 216 326 214 333 q 211 313 218 318 q 182 275 206 308 q 164 240 164 250 q 168 229 164 236 q 185 214 176 217 q 193 204 193 211 q 188 198 193 200 q 173 197 182 196 q 156 204 164 199 q 136 204 143 211 q 110 161 125 193 q 79 122 90 122 q 75 133 75 122 q 100 196 75 146 q 122 246 122 240 q 118 254 122 250 q 107 290 107 268 q 110 301 107 300 q 123 298 115 304 q 135 281 131 292 q 157 282 142 261 z "},"y":{"ha":353,"x_min":79,"x_max":278,"o":"m 228 256 q 237 279 231 260 q 251 312 243 299 q 269 325 258 325 q 278 313 278 325 q 268 286 278 297 q 258 268 258 274 q 242 224 258 261 q 221 185 225 186 q 163 94 211 179 q 108 -17 115 8 q 89 -40 101 -40 q 79 -28 79 -40 q 106 47 79 -10 q 158 133 133 103 q 182 168 178 160 l 192 186 l 176 207 q 160 236 160 232 q 156 249 160 247 q 151 257 150 251 q 158 264 153 263 l 161 264 q 189 235 171 264 q 204 217 199 217 q 214 233 208 217 q 228 256 217 239 z "},"z":{"ha":260,"x_min":67,"x_max":188,"o":"m 90 306 q 110 308 99 301 q 124 314 121 314 q 154 307 135 314 q 176 294 174 300 q 178 289 178 293 q 144 236 178 269 q 126 214 125 215 q 144 209 128 213 q 174 201 160 206 q 188 190 188 196 q 146 182 188 182 l 118 182 q 82 193 82 182 q 129 256 82 201 q 142 275 142 268 q 122 285 142 285 q 106 285 117 285 q 90 286 94 286 q 78 304 67 286 q 90 306 81 311 z "}," ":{"ha":347,"x_min":0,"x_max":0,"o":""}}}
